# xmcd
#
# Track frame offsets:
# 150
# 22425
# 44482
# 62900
# 88405
# 109030
# 128805
# 147017
# 167202
# 190837
#
# Disc length: 2786 seconds
#
#
# Revision: 2
# Processed by: cddbd v1.5.2PL0 Copyright (c) Steve Scherf et al.
# Submitted via: FreeRIP 2.96 
#
DISCID=960ae00a
DTITLE=Baby Face - The Day
DYEAR=1996
DGENRE=R&B
TTITLE0=every time i close my eyes
TTITLE1=talk to me
TTITLE2=i said i love you
TTITLE3=when your body gets weak
TTITLE4=simple days
TTITLE5=all day thinkin'
TTITLE6=seven seas
TTITLE7=the day(that you gave me a son)
TTITLE8=how come, how long
TTITLE9=this is for the lover in you
EXTD=produced by Baby Face\nfor ECAF productions,inc.
EXTT0=
EXTT1=
EXTT2=
EXTT3=
EXTT4=
EXTT5=
EXTT6=
EXTT7=
EXTT8=
EXTT9=
PLAYORDER=
